<svg width="42" height="37" viewBox="0 0 42 37" fill="none" xmlns="http://www.w3.org/2000/svg">
<g clip-path="url(#clip0_672_43534)">
<path d="M31.2831 0.5C28.1736 0.5 26.7522 1.2209 25.0198 3.11327L21.0664 7.57384L17.113 3.11327C15.2473 1.2209 13.9591 0.5 10.8497 0.5H6.18555C6.18555 0.5 13.4261 9.69149 14.4033 10.7278C15.958 12.4399 16.9797 13.296 19.0675 13.296H22.8876C25.0198 13.296 26.1303 12.4399 27.7294 10.7278C28.7511 9.69149 35.9916 0.5 35.9916 0.5H31.2831Z" fill="#F8B518"/>
<path d="M28.7509 12.4399C26.4855 12.8905 25.1973 13.4311 24.0868 15.3235L23.1095 16.9005L22.2655 18.6126C21.1106 20.4599 21.2883 21.9017 22.1323 24.2446C22.5765 25.5513 26.6632 36.5 26.6632 36.5L29.0619 32.4449C30.6166 29.6965 30.6166 28.1195 29.9058 25.6865L28.2179 19.9192L33.9037 18.6126C36.3912 18.0719 37.6794 17.1708 39.2341 14.4674L41.4996 10.2772C41.4996 10.2772 30.1724 12.1696 28.7509 12.4399Z" fill="#F07A22"/>
<path d="M19.9561 18.6577L18.9789 16.9455L18.1349 15.3686C16.98 13.4762 15.7362 12.9355 13.4263 12.485C12.0049 12.1696 0.5 10.2772 0.5 10.2772L2.8987 14.4674C4.45341 17.2159 5.7416 18.0719 8.1403 18.6577L13.9594 19.9643L12.1381 25.7315C11.4274 28.1646 11.5607 29.7866 13.1154 32.49L15.3808 36.545C15.3808 36.545 19.6452 25.5963 20.045 24.2897C20.8001 21.9468 21.0666 20.505 19.9561 18.6577Z" fill="#F59222"/>
</g>
<defs>
<clipPath id="clip0_672_43534">
<rect width="41" height="36" fill="white" transform="translate(0.5 0.5)"/>
</clipPath>
</defs>
</svg>
